<?xml version="1.0" standalone="no"?>
<!DOCTYPE svg PUBLIC "-//W3C//DTD SVG 20010904//EN"
 "http://www.w3.org/TR/2001/REC-SVG-20010904/DTD/svg10.dtd">
<svg version="1.0" xmlns="http://www.w3.org/2000/svg"
 width="64.000000pt" height="64.000000pt" viewBox="0 0 64.000000 64.000000"
 preserveAspectRatio="xMidYMid meet">

<g transform="translate(0.000000,64.000000) scale(0.100000,-0.100000)"
fill="#FFF" stroke="none">
<path d="M159 534 l-86 -35 -7 -186 c-3 -103 -3 -190 1 -193 5 -4 46 -17 93
-30 l84 -22 169 28 169 27 -5 46 c-3 25 -12 115 -18 199 -12 141 -14 153 -33
157 -55 12 -252 45 -266 45 -8 -1 -54 -17 -101 -36z m246 -7 l120 -22 3 -39 3
-39 -38 6 c-21 3 -80 9 -130 13 l-93 7 0 48 c0 27 3 49 8 48 4 0 61 -10 127
-22z m-155 -26 c0 -22 -3 -42 -7 -44 -5 -3 -41 -8 -80 -12 -72 -7 -73 -7 -73
16 0 20 11 29 63 51 88 37 97 36 97 -11z m-10 -80 c0 -12 -20 -18 -92 -26 -48
-5 -58 -4 -58 9 0 10 12 16 38 19 74 8 112 7 112 -2z m253 -8 c29 -3 46 -10
44 -17 -2 -6 -8 -11 -13 -11 -53 2 -233 17 -246 21 -10 3 -18 10 -18 16 0 11
115 6 233 -9z m-253 -33 c0 -5 -9 -10 -19 -10 -11 0 -23 -4 -26 -10 -4 -6 5
-10 19 -10 26 0 26 -1 26 -76 l0 -75 -72 7 c-40 3 -76 9 -81 11 -11 6 4 106
17 116 8 5 6 10 -4 16 -21 14 -11 19 60 29 36 5 68 10 73 11 4 0 7 -3 7 -9z
m298 -19 c10 -3 -1 -21 -13 -21 -8 0 -15 -4 -15 -10 0 -5 6 -10 14 -10 17 0
26 -22 26 -64 l0 -33 -62 -6 c-35 -4 -100 -10 -145 -13 l-83 -7 0 77 c0 61 3
76 15 76 8 0 15 5 15 10 0 6 -7 10 -16 10 -8 0 -13 4 -10 8 3 5 246 -10 274
-17z m18 -186 c4 -14 4 -28 2 -31 -3 -3 -59 -14 -124 -24 -66 -11 -131 -22
-146 -25 -27 -4 -28 -3 -28 39 l0 44 108 9 c181 17 181 17 188 -12z m-362 9
l46 -7 0 -44 c0 -37 -3 -44 -17 -39 -10 2 -46 12 -80 22 -59 15 -63 19 -63 45
0 26 3 29 34 29 18 0 54 -3 80 -6z"/>
<path d="M120 350 c0 -5 5 -10 10 -10 6 0 10 5 10 10 0 6 -4 10 -10 10 -5 0
-10 -4 -10 -10z"/>
<path d="M155 350 c3 -5 10 -10 16 -10 5 0 9 5 9 10 0 6 -7 10 -16 10 -8 0
-12 -4 -9 -10z"/>
<path d="M306 361 c-7 -10 52 -26 61 -17 8 8 3 12 -29 20 -15 3 -29 2 -32 -3z"/>
<path d="M390 350 c0 -5 9 -10 20 -10 11 0 20 5 20 10 0 6 -9 10 -20 10 -11 0
-20 -4 -20 -10z"/>
<path d="M450 340 c0 -5 9 -10 20 -10 11 0 20 5 20 10 0 6 -9 10 -20 10 -11 0
-20 -4 -20 -10z"/>
<path d="M277 333 c-2 -5 -3 -26 -2 -48 1 -28 6 -39 16 -37 9 1 7 -4 -5 -13
-24 -18 -7 -20 17 -2 15 10 15 15 4 38 -8 14 -13 33 -11 42 2 18 -12 33 -19
20z"/>
</g>
</svg>
