<?xml version="1.0" standalone="no"?>
<!DOCTYPE svg PUBLIC "-//W3C//DTD SVG 20010904//EN"
 "http://www.w3.org/TR/2001/REC-SVG-20010904/DTD/svg10.dtd">
<svg version="1.0" xmlns="http://www.w3.org/2000/svg"
 width="100.000000pt" height="100.000000pt" viewBox="0 0 100.000000 100.000000"
 preserveAspectRatio="xMidYMid meet">

<g transform="translate(0.000000,100.000000) scale(0.100000,-0.100000)"
fill="#FFF" stroke="none">
<path d="M591 885 l-73 -35 -166 0 c-134 0 -182 4 -242 20 -94 25 -112 25
-108 3 5 -28 125 -54 283 -62 l140 -6 -90 -45 c-98 -49 -114 -72 -78 -112 57
-63 157 -75 273 -32 l72 27 129 -129 c71 -71 129 -136 129 -145 0 -9 -9 -24
-20 -34 -17 -15 -24 -16 -50 -5 -38 16 -47 8 -33 -30 8 -22 8 -33 -4 -49 -17
-25 -41 -27 -72 -5 -29 21 -48 6 -31 -25 25 -47 -29 -93 -69 -57 -34 31 -59
14 -40 -27 24 -54 -36 -91 -76 -47 -17 19 -17 21 -1 39 28 31 18 81 -23 108
-19 13 -39 33 -45 45 -6 13 -21 28 -34 34 -12 6 -32 26 -45 45 -12 19 -33 35
-45 37 -12 2 -22 9 -22 16 0 7 -9 25 -21 40 -26 32 -77 36 -104 6 -11 -12 -26
-18 -39 -15 -12 2 -33 6 -49 10 -20 4 -29 1 -34 -11 -7 -20 13 -34 50 -34 22
0 27 -4 27 -25 0 -27 40 -75 62 -75 8 0 19 -14 25 -30 7 -19 22 -34 40 -40 18
-7 33 -22 40 -40 7 -18 21 -32 37 -36 16 -4 28 -15 32 -30 8 -30 40 -54 72
-54 13 0 37 -11 54 -25 51 -43 124 -26 143 35 4 12 15 20 28 20 30 0 66 26 77
56 7 17 17 24 35 24 31 0 75 41 75 69 0 13 9 21 29 26 37 8 62 35 70 77 6 28
12 34 51 43 82 20 57 55 -27 36 l-48 -10 -130 129 -130 130 -102 -36 c-93 -32
-106 -34 -144 -24 -45 12 -89 37 -89 51 0 10 366 188 402 196 19 4 43 -4 81
-26 60 -34 82 -36 172 -18 42 9 61 18 63 30 4 21 -18 22 -99 5 -56 -11 -60
-11 -120 20 -34 18 -74 32 -88 32 -15 0 -59 -16 -100 -35z m-386 -466 c5 -15
0 -29 -18 -47 -42 -41 -85 -6 -53 43 21 32 62 34 71 4z m81 -81 c9 -31 -38
-73 -67 -58 -23 13 -24 37 -2 62 23 25 60 23 69 -4z m68 -64 c21 -21 20 -27
-8 -53 -47 -44 -89 -2 -45 45 26 28 32 29 53 8z m70 -70 c22 -8 20 -47 -3 -68
-23 -21 -49 -18 -65 6 -8 13 -5 22 14 43 25 27 30 28 54 19z"/>
</g>
</svg>
