<?xml version="1.0" standalone="no"?>
<!DOCTYPE svg PUBLIC "-//W3C//DTD SVG 20010904//EN"
 "http://www.w3.org/TR/2001/REC-SVG-20010904/DTD/svg10.dtd">
<svg version="1.0" xmlns="http://www.w3.org/2000/svg"
 width="100.000000pt" height="100.000000pt" viewBox="0 0 100.000000 100.000000"
 preserveAspectRatio="xMidYMid meet">

<g transform="translate(0.000000,100.000000) scale(0.100000,-0.100000)"
fill="#fff" stroke="none">
<path d="M478 944 c-30 -16 -58 -61 -58 -94 0 -53 57 -110 110 -110 53 0 110
57 110 110 0 34 -28 78 -60 95 -36 19 -67 19 -102 -1z m97 -49 c14 -13 25 -33
25 -45 0 -27 -43 -70 -70 -70 -26 0 -70 43 -70 68 0 30 38 72 66 72 14 0 36
-11 49 -25z"/>
<path d="M247 688 c-109 -116 -123 -147 -92 -208 20 -39 69 -64 112 -57 29 5
34 3 39 -18 9 -38 -29 -135 -80 -206 -52 -71 -57 -99 -21 -134 47 -48 82 -29
149 79 26 41 51 88 57 105 13 37 19 38 47 8 18 -20 22 -35 22 -96 0 -63 3 -75
25 -96 13 -14 34 -25 45 -25 12 0 32 11 45 25 24 23 25 30 25 140 l0 117 -60
62 -59 62 15 52 15 52 46 -35 c50 -38 66 -41 103 -20 14 8 28 14 32 15 4 0 9
-105 10 -232 3 -199 5 -233 18 -233 13 0 15 35 18 243 l2 243 32 28 c25 23 30
32 24 55 -3 15 -18 32 -31 38 -21 9 -25 18 -25 55 0 36 -3 43 -20 43 -18 0
-20 -7 -20 -54 0 -53 -1 -54 -37 -69 l-38 -15 -50 44 c-59 53 -105 76 -161 79
-23 2 -50 8 -62 14 -38 20 -56 12 -125 -61z m109 18 c10 -26 -44 -210 -67
-228 -29 -25 -55 -22 -84 7 -43 42 -33 67 74 178 58 60 68 66 77 43z m119 -17
c25 -7 61 -31 97 -65 31 -30 61 -54 67 -54 6 0 35 12 66 27 40 20 58 24 66 16
6 -6 8 -16 4 -22 -7 -13 -119 -71 -135 -71 -6 0 -34 18 -62 40 -28 23 -56 39
-62 37 -6 -2 -21 -41 -34 -87 l-24 -82 61 -62 62 -62 -3 -110 c-3 -109 -3
-109 -28 -109 -25 0 -25 2 -28 88 l-3 87 -84 72 c-47 39 -87 79 -90 89 -5 15
48 250 61 271 7 11 21 10 69 -3z m-101 -358 c16 -17 16 -25 6 -58 -16 -51
-101 -182 -122 -189 -22 -7 -38 3 -38 22 0 9 20 44 45 79 25 35 52 86 61 114
16 56 23 60 48 32z"/>
</g>
</svg>
