<?xml version="1.0" standalone="no"?>
<!DOCTYPE svg PUBLIC "-//W3C//DTD SVG 20010904//EN"
 "http://www.w3.org/TR/2001/REC-SVG-20010904/DTD/svg10.dtd">
<svg version="1.0" xmlns="http://www.w3.org/2000/svg"
 width="100.000000pt" height="100.000000pt" viewBox="0 0 100.000000 100.000000"
 preserveAspectRatio="xMidYMid meet">

<g transform="translate(0.000000,100.000000) scale(0.100000,-0.100000)"
fill="#000000" stroke="none">
<path d="M805 773 c-11 -3 -70 -27 -131 -54 -62 -27 -118 -49 -125 -49 -8 0
-65 16 -128 35 -62 19 -127 35 -143 35 -37 0 -88 -26 -88 -45 0 -9 37 -39 82
-67 l81 -52 -64 -29 c-110 -49 -100 -49 -157 -5 -40 30 -60 38 -84 36 -55 -5
-57 -26 -8 -133 56 -125 73 -134 190 -111 43 9 115 31 161 50 46 19 85 33 87
31 2 -2 -8 -63 -22 -136 -22 -114 -24 -135 -12 -147 16 -16 43 -10 78 18 14
11 58 92 107 197 l83 179 122 61 c134 68 177 103 160 130 -30 48 -121 75 -189
56z m114 -44 c17 -6 31 -17 31 -24 0 -8 -60 -44 -134 -82 l-134 -67 -82 -178
c-76 -164 -120 -236 -120 -196 0 8 12 77 26 152 14 76 23 140 20 143 -3 3 -49
-14 -103 -37 -115 -50 -244 -84 -280 -75 -19 4 -33 24 -63 88 -21 45 -33 84
-28 86 5 2 28 -10 51 -26 85 -61 58 -66 359 68 393 175 385 173 457 148z
m-530 -55 c47 -15 90 -29 95 -31 4 -3 -12 -15 -37 -25 l-46 -20 -75 43 c-42
24 -76 47 -76 52 0 14 53 7 139 -19z"/>
</g>
</svg>
