<?xml version="1.0" encoding="utf-8"?>
<svg version="1.0" width="100.000000pt" height="100.000000pt" viewBox="0 0 100.000000 100.000000" preserveAspectRatio="xMidYMid meet" xmlns="http://www.w3.org/2000/svg">
  <defs/>
  <g transform="translate(0.000000,100.000000) scale(0.100000,-0.100000)" fill="#FFFFFF" stroke="none">
    <path d="M805 773 c-11 -3 -70 -27 -131 -54 -62 -27 -118 -49 -125 -49 -8 0&#10;-65 16 -128 35 -62 19 -127 35 -143 35 -37 0 -88 -26 -88 -45 0 -9 37 -39 82&#10;-67 l81 -52 -64 -29 c-110 -49 -100 -49 -157 -5 -40 30 -60 38 -84 36 -55 -5&#10;-57 -26 -8 -133 56 -125 73 -134 190 -111 43 9 115 31 161 50 46 19 85 33 87&#10;31 2 -2 -8 -63 -22 -136 -22 -114 -24 -135 -12 -147 16 -16 43 -10 78 18 14&#10;11 58 92 107 197 l83 179 122 61 c134 68 177 103 160 130 -30 48 -121 75 -189&#10;56z m114 -44 c17 -6 31 -17 31 -24 0 -8 -60 -44 -134 -82 l-134 -67 -82 -178&#10;c-76 -164 -120 -236 -120 -196 0 8 12 77 26 152 14 76 23 140 20 143 -3 3 -49&#10;-14 -103 -37 -115 -50 -244 -84 -280 -75 -19 4 -33 24 -63 88 -21 45 -33 84&#10;-28 86 5 2 28 -10 51 -26 85 -61 58 -66 359 68 393 175 385 173 457 148z&#10;m-530 -55 c47 -15 90 -29 95 -31 4 -3 -12 -15 -37 -25 l-46 -20 -75 43 c-42&#10;24 -76 47 -76 52 0 14 53 7 139 -19z" style="stroke-width: 0px; stroke: rgb(255, 255, 255);"/>
  </g>
  <path style="fill: rgb(255, 255, 255); stroke: rgb(255, 255, 255);" d="M 16.656 65.117 L 17.721 51.276 L 84.193 24.2 L 96.818 26.482 L 97.426 30.893 L 70.046 46.104"/>
  <path style="fill: rgb(255, 255, 255); stroke: rgb(255, 255, 255);" d="M 23.501 64.965 L 23.501 55.382 L 47.23 51.732 L 45.405 57.664 L 24.566 64.509"/>
  <path style="fill: rgb(255, 255, 255); stroke: rgb(255, 255, 255);" d="M 51.793 49.146 L 46.013 85.804 C 46.013 85.804 51.337 83.218 51.489 83.066 C 51.641 82.914 71.567 41.388 71.567 41.388 L 51.033 49.907"/>
  <path style="fill: rgb(255, 255, 255); stroke: rgb(255, 255, 255);" d="M 7.682 44.583 L 21.676 52.036 L 18.938 66.943 L 11.028 64.205 L 2.966 43.67"/>
</svg>