<?xml version="1.0" standalone="no"?>
<!DOCTYPE svg PUBLIC "-//W3C//DTD SVG 20010904//EN"
 "http://www.w3.org/TR/2001/REC-SVG-20010904/DTD/svg10.dtd">
<svg version="1.0" xmlns="http://www.w3.org/2000/svg"
 width="96.000000pt" height="96.000000pt" viewBox="0 0 96.000000 96.000000"
 preserveAspectRatio="xMidYMid meet">

<g transform="translate(0.000000,96.000000) scale(0.100000,-0.100000)"
fill="#FFF" stroke="none">
<path d="M270 818 c-119 -60 -117 -237 2 -296 74 -37 153 -7 188 71 40 88 10
184 -70 225 -24 12 -51 22 -60 22 -9 0 -36 -10 -60 -22z m95 -32 c42 -18 75
-69 75 -116 0 -96 -107 -159 -174 -101 -70 61 -55 181 27 216 40 18 32 18 72
1z"/>
<path d="M609 697 c-46 -31 -76 -78 -90 -142 -15 -67 -7 -79 64 -100 64 -19
130 -19 194 0 71 21 79 33 64 100 -30 135 -141 203 -232 142z m121 -32 c34
-18 66 -74 71 -125 4 -32 2 -35 -36 -46 -51 -16 -119 -16 -170 0 -38 11 -40
14 -36 46 10 106 93 166 171 125z"/>
<path d="M263 450 c-97 -20 -192 -94 -236 -184 -33 -68 -34 -90 -2 -121 l24
-25 281 0 281 0 24 25 c32 31 31 53 -2 121 -65 133 -227 214 -370 184z m189
-62 c84 -36 183 -165 164 -214 -5 -12 -47 -14 -288 -12 -320 3 -308 0 -269 82
72 147 242 209 393 144z"/>
<path d="M633 394 c-7 -3 -13 -11 -13 -18 0 -9 21 -15 63 -18 98 -8 170 -55
212 -136 27 -55 18 -61 -97 -64 -84 -2 -103 -6 -103 -18 0 -12 20 -16 107 -18
97 -2 109 -1 128 18 26 26 25 45 -6 108 -43 86 -127 142 -223 148 -31 2 -62 1
-68 -2z"/>
</g>
</svg>
